<?xml version="1.0" encoding="ISO-8859-1" standalone="no"?>
<!-- Created with Make The Cut! -->
<!DOCTYPE svg PUBLIC "-//W3C//DTD SVG 1.1//EN" "http://www.w3.org/Graphics/SVG/1.1/DTD/svg11.dtd">
<svg mtc_dpi="90" xmlns="http://www.w3.org/2000/svg" version="1.1">
	<g label="Clipboard Trace" id="Clipboard Trace">
		<path label="Trace Shape" id="Trace Shape" fill="#005542" stroke="#002a21" stroke-linejoin="round" d="M283.923,327.202 C281.707,326.905 278.965,326.301 277.831,325.859 C275.262,324.859 264.158,322.39 255.587,320.914 C248.808,319.746 243.31,318.432 240.738,317.365 C239.039,316.66 233.382,314.91 228.172,313.477 C226.288,312.958 223.032,312.3 220.938,312.015 C216.72,311.44 211.303,310.174 206.088,308.545 C204.083,307.918 200.135,307.541 196.569,307.636 C190.973,307.785 190.089,307.592 185.713,305.268 C183.093,303.876 180.76,302.43 180.528,302.055 C179.792,300.864 175.627,301.255 175.627,302.515 C175.627,303.144 176.101,303.658 176.681,303.658 C178.142,303.658 183.248,309.458 183.218,311.085 C183.188,312.759 181.464,315.08 180.252,315.08 C179.318,315.08 174.352,311.623 172.962,310.006 C171.98,308.864 165.921,308.058 165.344,308.992 C165.101,309.385 165.823,310.486 166.946,311.441 C171.652,315.438 175.627,320.927 175.627,323.427 C175.627,324.929 170.294,324.236 167.298,322.345 C165.666,321.315 163.442,320.249 162.356,319.976 C161.271,319.704 160.194,319.176 159.964,318.804 C159.733,318.431 157.938,318.113 155.973,318.096 C153.143,318.071 151.853,317.596 149.764,315.811 C148.002,314.305 146.296,313.557 144.624,313.557 C141.842,313.557 141.583,313.987 143.253,315.832 C143.876,316.521 144.605,318.175 144.871,319.509 C145.327,321.789 145.224,321.934 143.146,321.934 C141.93,321.934 140.26,321.472 139.434,320.907 C137.339,319.476 133.897,318.848 124.348,318.156 C114.835,317.466 112.962,316.525 114.978,313.448 C115.716,312.321 115.918,311.241 115.512,310.585 C114.505,308.955 109.437,307.489 104.767,307.477 C98.2742,307.459 97.0754,309.588 101.037,314.1 C103.9,317.361 103.594,318.535 99.9101,318.415 C96.755,318.313 94.6205,317.364 89.5745,313.821 C87.6897,312.497 83.0704,310.143 79.3094,308.588 C73.1787,306.054 71.9672,305.802 67.6007,306.153 C63.3298,306.495 60.193,306.128 48.8198,303.955 C45.7919,303.376 43.591,301.709 44.1009,300.38 C44.4921,299.36 49.3605,298.327 53.7709,298.327 C54.9041,298.327 56.3709,297.727 57.0305,296.994 C58.1251,295.778 58.1082,295.512 56.836,293.948 C56.0695,293.006 55.1109,292.235 54.7058,292.235 C54.3007,292.235 53.5426,291.721 53.0212,291.092 C52.4998,290.464 51.1727,289.939 50.0722,289.925 C48.2206,289.902 43.0991,288.295 38.5522,286.309 C36.6797,285.492 32.7122,282.462 26.0999,276.799 C23.5135,274.584 21.9119,273.844 19.0867,273.558 C17.073,273.354 14.6675,272.691 13.7411,272.084 C9.21496,269.118 4.89503,261.55 1.90221,251.344 C0.946042,248.083 0,234.685 0.47577,231.143 C0.971797,227.449 1.60881,227.929 6.7624,235.882 C9.06959,239.442 12.1594,243.725 13.6286,245.401 C16.2206,248.356 16.3446,248.407 17.8027,247.09 C18.6291,246.345 20.0982,245.582 21.0672,245.395 C24.0123,244.828 24.458,243.699 24.6131,236.415 C24.6951,232.562 25.0691,227.695 25.4441,225.601 L26.1259,221.793 L27.0239,223.978 C27.5178,225.18 28.2285,229.126 28.6033,232.748 C29.3434,239.902 30.3221,242.744 33.1569,245.972 C35.2774,248.386 36.3502,248.546 38.9597,246.836 C41.1682,245.389 41.4356,243.497 39.4317,243.497 C37.8714,243.497 35.506,241.241 35.506,239.753 C35.506,239.226 36.7054,236.65 38.1714,234.028 C41.3176,228.402 41.4693,226.946 39.0069,226.01 C36.2049,224.945 35.9249,223.773 37.8499,221.169 C38.9188,219.724 39.5448,217.909 39.4416,216.555 C39.3118,214.852 39.8596,213.833 41.7568,212.249 C43.996,210.38 44.1661,209.958 43.4759,207.988 C42.9942,206.613 42.0796,205.711 41.0118,205.558 C38.5653,205.207 38.8796,204.506 42.7987,201.569 C45.9115,199.237 46.235,198.715 45.8278,196.678 C45.5771,195.425 44.8919,193.919 44.3052,193.332 C43.5487,192.576 43.4367,191.744 43.9201,190.473 C44.2949,189.487 44.4205,188.208 44.1991,187.631 C43.9777,187.054 44.5032,185.324 45.3669,183.786 C46.4861,181.794 46.8222,180.179 46.5369,178.165 C46.0642,174.829 47.0153,168.117 47.9933,167.886 C48.3693,167.797 49.2407,169.438 49.9296,171.533 C50.6186,173.627 51.5646,176.012 52.0318,176.834 C52.7085,178.024 52.5549,178.895 51.2761,181.117 L49.6709,183.906 L52.0355,186.096 C54.676,188.542 56.3982,193.479 55.3159,195.502 C54.9372,196.209 54.0946,197.23 53.4435,197.771 C51.6445,199.264 52.0007,200.579 54.925,203.24 C58.0816,206.112 58.2684,207.429 55.6865,208.605 C53.7581,209.484 53.5326,210.338 53.552,216.685 C53.5605,219.47 56.3956,223.011 60.2126,225.003 C62.3657,226.127 62.5234,226.093 64.2106,224.131 C66.5225,221.444 66.4505,218.137 64.0103,214.938 C62.4031,212.831 62.2029,212.093 62.89,210.809 C63.7185,209.261 64.4443,208.982 69.9433,208.099 C72.4988,207.689 75.1055,205.468 75.1055,203.701 C75.1055,203.36 73.6011,202.437 71.7625,201.649 C69.9238,200.861 68.2269,199.904 67.9916,199.523 C67.276,198.366 68.3137,195.688 69.6548,195.232 C73.484,193.931 75.5183,191.662 76.9085,187.144 C78.4206,182.229 77.5812,181.052 72.5656,181.052 C68.3594,181.052 66.7287,180.153 66.7287,177.834 C66.7287,176.255 69.2116,175.112 74.0923,174.443 C75.897,174.196 77.7258,173.569 78.1564,173.05 C79.0732,171.945 78.3789,169.64 77.1182,169.603 C76.6395,169.589 75.4364,168.902 74.4446,168.076 C72.9633,166.842 72.8101,166.371 73.586,165.436 C74.1054,164.81 75.1458,164.298 75.898,164.298 C77.7377,164.298 79.6746,163.513 79.6746,162.767 C79.6746,162.433 70.3364,162.213 58.923,162.277 C43.236,162.366 37.7532,162.155 36.4579,161.416 C35.5156,160.877 34.7445,160.161 34.7445,159.824 C34.7445,158.873 48.4232,157.338 60.6364,156.918 C69.2185,156.623 72.3572,156.222 74.7247,155.12 C76.4001,154.34 79.3129,153.469 81.1977,153.184 C85.1533,152.586 86.9882,151.783 89.3841,149.601 C91.9834,147.234 91.4784,146.618 87.1716,146.903 C84.5475,147.077 83.1393,146.853 82.925,146.228 C82.7487,145.713 84.344,143.452 86.4702,141.204 C88.5964,138.956 90.336,136.906 90.336,136.648 C90.336,136.39 88.1857,136.38 85.5574,136.625 C81.7162,136.984 80.5796,136.831 79.7632,135.848 C78.8882,134.793 78.9962,134.529 80.5438,133.94 C86.1639,131.801 88.0199,130.75 88.8222,129.25 C90.2767,126.533 88.8606,125.916 83.3807,126.882 C77.8491,127.856 76.5522,127.233 78.3621,124.471 C79.6873,122.448 83.9897,120.129 86.4172,120.129 C89.4701,120.129 91.7109,118.453 92.9326,115.254 C93.5987,113.509 94.1312,111.751 94.1161,111.346 C94.1009,110.942 92.6445,109.925 90.8796,109.087 C86.8818,107.19 86.3002,105.165 89.4387,104.071 C90.686,103.636 91.8712,102.65 92.0724,101.881 C92.6898,99.52 91.7759,96.5224 90.4376,96.5183 C89.7535,96.5162 88.1657,95.6829 86.9091,94.6665 C84.7553,92.9241 84.6986,92.7429 85.9186,91.4996 C86.7215,90.6813 88.8168,90.0478 91.4396,89.8303 C95.9146,89.4592 97.0119,88.1573 94.1436,86.6223 C92.228,85.5971 92.228,83.7406 94.1436,81.2916 C96.0342,78.8746 96.0342,78.0798 94.1436,76.8991 C92.15,75.6541 92.2214,74.3778 94.4283,71.8094 C95.4225,70.6524 96.655,68.286 97.1671,66.5507 C97.6792,64.8154 98.7505,62.3272 99.5478,61.0212 C101.493,57.8349 101.469,52.5732 99.5003,50.4773 C98.0097,48.8906 98.0113,48.8671 99.8686,45.0975 C100.895,43.0151 101.959,39.9985 102.234,38.3938 C102.847,34.8218 104.015,36.114 104.032,40.3834 C104.039,42.2323 104.452,43.4199 105.186,43.7013 C105.814,43.9424 106.328,44.5646 106.328,45.084 C106.328,45.6033 107.013,46.8185 107.851,47.7844 C109.729,49.9501 109.815,52.2361 108.042,52.9014 C104.883,54.0867 103.725,59.0118 105.923,61.9174 C107.208,63.6163 107.453,67.2698 106.328,67.9649 C104.706,68.9672 105.709,71.1883 109.041,73.9736 C112.326,76.719 112.447,76.9543 111.252,78.2738 C110.558,79.0416 108.48,80.3791 106.636,81.2461 C104.791,82.1131 103.282,83.1389 103.282,83.5257 C103.282,84.5246 105.505,86.621 106.573,86.6289 C107.066,86.6325 108.755,87.8535 110.326,89.3422 C113.606,92.4509 114.165,94.6952 111.468,93.9272 C107.484,92.7928 105.567,92.5679 105.567,93.2353 C105.567,94.2638 107.185,96.1094 109.353,97.553 L111.236,98.8067 L107.685,98.8067 C101.989,98.8067 102.202,100.077 108.613,104.332 C110.457,105.557 111.278,106.679 111.278,107.975 C111.278,109.704 111.034,109.83 108.122,109.601 C104.038,109.28 103.313,110.526 105.971,113.301 L108.066,115.487 L104.89,116.757 C101.734,118.02 100.236,119.702 100.236,121.983 C100.236,122.889 101.06,123.176 103.663,123.176 C106.657,123.176 107.09,123.382 107.09,124.805 C107.09,126.589 108.409,127.847 112.301,129.772 C115.196,131.205 116.964,134.167 115.686,135.445 C115.12,136.011 113.553,135.911 110.414,135.111 C107.957,134.484 105.823,134.094 105.67,134.245 C105.518,134.395 106.117,135.439 107.003,136.565 C110.018,140.398 108.683,141.641 103.546,139.783 C102.165,139.284 100.815,139.097 100.544,139.367 C99.3854,140.526 101.213,143.68 104.221,145.714 C111.08,150.351 115.143,151.495 126.147,151.889 C134.691,152.195 135.812,152.085 136.891,150.839 C138.258,149.261 140.597,140.438 140.597,136.861 C140.597,135.01 140.89,134.543 141.929,134.743 C142.954,134.94 143.382,136.081 143.78,139.683 C144.458,145.82 146.598,149.829 150.311,151.923 C152.866,153.364 155.318,153.076 158.42,150.971 C159.963,149.924 161.639,149.057 162.144,149.043 C163.745,149.001 165.432,147.244 166.31,144.704 C166.778,143.351 168.044,141.295 169.124,140.135 C171.717,137.35 171.344,135.805 168.006,135.491 C166.543,135.353 164.256,134.411 162.922,133.397 C161.589,132.382 159.487,131.552 158.25,131.552 C157.014,131.552 154.225,130.978 152.053,130.277 C148.826,129.235 147.65,129.165 145.629,129.896 C144.268,130.388 139.879,130.791 135.876,130.791 C130.14,130.791 128.385,130.533 127.59,129.575 C126.022,127.686 128.431,126.795 135.578,126.622 C138.967,126.54 142.424,126.257 143.262,125.994 C153.535,122.766 160.4,120.915 162.134,120.904 C164.818,120.887 168.836,119.226 170.215,117.563 C171.132,116.458 171.081,115.92 169.846,113.626 C168.851,111.779 168.643,110.651 169.165,109.928 C175.174,101.601 174.925,102.168 173.767,99.444 C172.76,97.0758 172.818,96.6777 174.613,93.5934 C176.587,90.1999 176.607,89.0367 174.77,84.5119 C173.938,82.4652 173.934,81.7382 174.747,80.4375 C175.29,79.5668 176.053,75.783 176.441,72.0292 C176.83,68.2755 177.496,64.553 177.922,63.7571 C178.819,62.0802 180.945,62.5468 180.983,64.4291 C181.126,71.6138 182.42,75.7644 186.241,81.2916 C190.159,86.9598 190.185,87.0362 189.687,91.3824 C189.267,95.0447 189.447,96.2053 190.783,98.4701 C193.003,102.234 192.862,105.733 190.389,108.206 C188.108,110.487 188.389,112.248 191.142,112.939 C192.457,113.269 194.906,112.503 199.361,110.369 C206.873,106.771 210.585,105.67 215.227,105.665 C221.26,105.657 231.105,108.359 243.403,113.396 C251.5,116.713 272.649,114.765 285.668,109.504 C289.95,107.774 293.622,106.494 296.71,105.654 C298.595,105.142 301.086,104.375 302.246,103.95 C303.406,103.526 307.69,103.22 311.765,103.27 C323.566,103.417 343.063,101.85 348.113,100.35 C350.626,99.6037 354.053,98.6246 355.728,98.1745 C357.404,97.7244 360.751,96.7771 363.166,96.0693 C371.279,93.6919 383.761,95.6841 395.543,101.237 C399.198,102.96 402.688,102.686 405.228,100.479 C406.065,99.7506 409.146,96.4207 412.075,93.079 C415.003,89.7372 417.615,86.8317 417.88,86.6223 C418.145,86.4128 419.176,85.0368 420.171,83.5643 C421.167,82.0918 424.425,77.6369 427.413,73.6644 C430.4,69.692 433.774,64.2143 434.911,61.4919 C439.285,51.0211 441.314,49.3074 449.34,49.3074 C454.197,49.3074 454.452,49.41 460.61,53.8442 C464.076,56.3395 468.453,59.7967 470.338,61.527 C472.223,63.2573 477.192,66.3383 481.38,68.3737 C485.569,70.4091 490.309,73.3177 491.915,74.8372 C494.83,77.5969 494.839,77.5994 500.291,77.1866 C503.293,76.9593 507.692,76.5604 510.067,76.3002 C513.577,75.9155 515.462,76.1989 520.145,77.8149 C523.312,78.9083 527.537,80.9048 529.532,82.2515 C532.731,84.41 533.702,84.681 537.732,84.538 C540.246,84.4487 544.187,83.656 546.491,82.7764 C553.366,80.151 560.252,78.2612 565.91,77.447 C568.842,77.0251 573.125,76.0488 575.429,75.2774 C584.742,72.159 588.867,71.2549 591.714,71.7075 C595.48,72.3058 596.074,72.7779 603.419,81.0068 C609.34,87.6401 614.972,91.9529 617.712,91.9529 C618.41,91.9529 619.891,92.435 621.003,93.0242 C625.424,95.3672 631.386,96.0195 642.238,95.3476 C656.095,94.4897 664.943,94.748 667.044,96.0718 C668.733,97.1363 679.142,100.856 681.765,101.332 C684.706,101.866 690.154,103.64 693.323,105.095 C695.129,105.925 697.856,106.886 699.383,107.23 C701.988,107.817 702.398,107.637 705.999,104.313 C710.711,99.9638 711.018,99.4923 710.475,97.4165 C710.117,96.0492 709.486,95.7606 706.856,95.7606 C705.104,95.7606 703.313,96.1178 702.876,96.5544 C701.766,97.6645 700.059,95.4712 700.656,93.7029 C701.389,91.5349 704.498,89.703 708.843,88.8791 C716.332,87.4587 718.913,85.5059 715.36,83.9471 C714.417,83.5337 713.539,82.4427 713.408,81.5227 C713.219,80.1906 713.852,79.5392 716.52,78.3239 C720.143,76.6735 722.026,74.9131 721.346,73.8124 C721.11,73.4318 719.525,72.9335 717.823,72.7052 C714.041,72.1979 712.536,71.0538 713.052,69.0791 C713.331,68.0144 714.13,67.566 715.829,67.5215 C720.184,67.4072 722.671,66.7478 723.661,65.4452 C725.161,63.4714 724.904,59.6383 723.165,58.065 C720.121,55.31 721.453,53.7397 727.354,53.1286 C730.651,52.7871 731.196,52.4909 731.418,50.9166 C731.75,48.5682 730.462,47.8104 726.114,47.796 C723.817,47.7884 722.236,47.3581 721.574,46.5597 C720.453,45.2094 720.763,44.8634 725.393,42.2987 C728.311,40.6821 728.415,38.4849 725.64,37.0865 C724.488,36.5061 723.411,35.9424 723.247,35.8339 C722.536,35.3649 725.003,33.3154 726.278,33.3154 C727.86,33.3154 729.423,30.976 728.633,29.7902 C728.348,29.3625 726.668,28.3529 724.898,27.5467 C723.129,26.7405 721.673,25.8645 721.662,25.6001 C721.651,25.3357 723.164,24.7362 725.024,24.2679 C729.253,23.203 729.764,22.3956 727.794,19.8918 C726.026,17.6435 726.284,16.7859 729.047,15.7353 C730.753,15.087 730.923,14.6873 730.528,12.2562 C730.248,10.5283 730.495,8.71296 731.193,7.36199 C731.804,6.18086 732.304,4.36097 732.304,3.3178 C732.304,1.46557 733.511,0 734.347,0.83657 C734.578,1.06725 734.942,2.90067 735.155,4.91085 C735.369,6.92103 736.056,9.15324 736.682,9.87131 C737.694,11.0313 737.688,11.5105 736.625,14.1675 C735.485,17.0148 735.503,17.2256 736.983,18.5649 C739.842,21.1531 740.21,22.6265 738.461,24.4883 C736.159,26.9392 736.484,28.2693 739.976,30.6895 C743.012,32.7937 745.25,35.2951 745.25,36.5857 C745.25,36.9415 743.432,37.0056 741.212,36.7281 C738.053,36.3334 736.961,36.4794 736.199,37.3983 C734.992,38.8525 735.483,40.4641 738.823,46.0113 C741.96,51.2209 742.121,52.9157 739.538,53.5639 C735.937,54.4676 738.25,59.5843 743.13,61.512 C747.659,63.3014 751.445,67.8629 750.786,70.7388 C750.474,72.1019 748.356,71.882 745.63,70.2036 C742.673,68.3824 740.68,68.1275 740.68,69.5701 C740.68,71.6291 746.076,82.0531 747.141,82.0531 C748.333,82.0531 752.103,84.9738 752.103,85.8965 C752.103,86.2741 751.075,87.1148 749.819,87.7646 C747.854,88.7804 747.534,89.3756 747.534,92.0114 C747.534,94.7949 747.289,95.1792 744.869,96.1904 C742.888,97.0179 742.203,97.7667 742.203,99.1044 C742.203,101.361 743.209,102.198 747.783,103.751 C752.296,105.283 758.021,109.243 758.668,111.279 C759.014,112.369 758.568,113.308 757.108,114.564 C754.022,117.219 751.43,116.84 748.296,113.276 C746.635,111.387 744.964,110.242 743.861,110.237 C741.2,110.226 742.025,111.658 747.596,116.719 C754.758,123.226 755.402,123.686 759.877,125.504 C762.093,126.404 764.592,127.422 765.43,127.767 C766.268,128.111 769.866,128.797 773.426,129.289 C776.986,129.782 781.292,130.836 782.995,131.63 C787.801,133.873 790.665,133.566 792.46,130.614 C794.786,126.79 795.974,120.514 794.791,118.304 C793.906,116.65 794.088,116.218 796.952,113.178 C798.672,111.351 800.079,109.622 800.079,109.334 C800.079,109.046 799.052,108.078 797.795,107.184 C795.024,105.211 795.001,104.91 797.414,102.306 C799.868,99.658 799.817,99.1227 796.854,96.3544 L794.39,94.0525 L796.685,92.0508 C800.753,88.5033 803.018,84.7515 803.56,80.6664 C804.123,76.422 806.485,73.2416 807.661,75.1442 C808.01,75.7089 808.508,77.4986 808.767,79.1215 C809.061,80.9606 810.239,83.1788 811.894,85.0106 C814.992,88.4398 815.137,89.3287 812.894,91.1445 C811.337,92.4056 811.298,92.6912 812.23,96.021 C812.981,98.701 813.008,99.8141 812.343,100.615 C811.86,101.197 811.169,104.027 810.808,106.903 L810.152,112.133 L814.635,116.348 C817.954,119.469 819.118,121.096 819.118,122.616 C819.118,124.162 818.655,124.786 817.245,125.14 C814.644,125.792 813.636,127.258 814.211,129.548 C815.047,132.879 817.417,132.876 820.562,129.541 C822.086,127.925 824.441,125.657 825.794,124.502 C828.999,121.769 829.333,117.845 826.361,117.845 C824.057,117.845 821.402,115.717 821.402,113.87 C821.402,113.127 822.602,111.191 824.068,109.568 C827.002,106.32 827.439,103.99 825.4,102.467 C821.93,99.8756 821.944,99.2482 825.58,94.8316 C827.471,92.5353 829.018,90.1574 829.018,89.5475 C829.018,88.9375 827.647,87.8336 825.971,87.0945 C824.296,86.3553 822.925,85.2778 822.925,84.7 C822.925,84.1222 824.183,82.4282 825.72,80.9355 C828.411,78.3219 828.46,78.1804 827.052,77.1115 C826.248,76.501 824.991,75.798 824.258,75.5491 C822.607,74.9885 822.524,72.6725 824.109,71.3572 C826.346,69.5005 826.922,67.5945 825.953,65.254 C825.129,63.2664 825.266,62.7833 827.412,60.0732 C828.714,58.4293 829.779,56.3849 829.779,55.53 C829.779,53.1928 831.203,49.9176 832.004,50.4126 C832.391,50.652 832.947,51.9346 833.238,53.2627 C833.761,55.641 836.118,60.4207 837.466,61.8345 C838.395,62.8087 838.34,66.578 837.371,68.3888 C836.465,70.0825 837.752,73.1474 840.362,75.5096 C842.678,77.6049 842.426,80.2519 839.781,81.6197 C838.327,82.3715 837.437,83.5543 837.115,85.1613 C836.283,89.3207 836.552,90.2111 839.659,93.6012 C843.265,97.5361 843.659,100.334 840.821,101.853 C838.464,103.114 838.466,103.301 840.88,107.918 C841.959,109.982 842.73,112.46 842.593,113.425 C842.384,114.897 841.823,115.217 839.108,115.414 C837.125,115.557 835.871,116.022 835.871,116.614 C835.871,117.598 838.979,120.891 839.907,120.891 C840.188,120.891 842.146,121.954 844.258,123.254 C848.433,125.823 850.34,128.652 850.34,132.276 C850.34,135.397 848.224,135.369 844.616,132.201 C842.658,130.481 841.652,130.036 841.062,130.627 C839.984,131.704 844.131,139.166 847.46,142.14 C849.606,144.057 850.467,144.296 855.621,144.405 C861.29,144.524 866.579,145.001 869.95,145.697 C872.273,146.176 872.331,149.514 870.029,150.245 C869.13,150.53 863.476,150.518 857.464,150.217 C846.639,149.676 846.533,149.686 846.533,151.297 C846.533,152.191 847.004,153.104 847.579,153.324 C848.155,153.545 849.257,154.899 850.03,156.333 C851.139,158.393 851.238,159.136 850.499,159.875 C849.76,160.614 849.046,160.509 847.096,159.375 C845.739,158.586 844.457,157.703 844.248,157.414 C844.039,157.125 843.096,156.647 842.154,156.353 C840.772,155.922 840.44,156.112 840.44,157.334 C840.44,160.784 848.664,168.646 856.132,172.337 C858.774,173.642 860.719,176.614 859.852,178.018 C859.459,178.654 858.108,178.781 855.477,178.432 C852.151,177.991 851.731,178.085 852.148,179.171 C852.41,179.855 852.625,180.558 852.625,180.733 C852.625,180.908 853.114,181.052 853.712,181.052 C855.294,181.052 858.061,184.889 857.799,186.718 C857.614,188.006 857.104,188.248 854.942,188.072 C853.495,187.954 851.755,187.354 851.075,186.739 C850.396,186.124 849.096,185.621 848.186,185.621 C845.946,185.621 845.966,188.77 848.227,191.976 C850.052,194.565 854.824,199.328 855.593,199.328 C855.851,199.328 857.847,200.792 860.028,202.581 C866.359,207.774 873.051,209.021 873.813,205.149 C873.997,204.214 873.488,203.897 871.8,203.897 C869.248,203.897 868.213,202.267 869.381,200.085 C870.553,197.896 870.287,196.498 868.617,196.062 C866.094,195.402 866.881,194.132 870.877,192.413 C873.021,191.49 874.865,190.137 875.135,189.288 C875.396,188.464 875.493,187.705 875.35,187.6 C875.207,187.494 873.847,186.662 872.328,185.749 L869.566,184.089 L872.518,181.137 C875.932,177.723 876.224,176.482 873.612,176.482 C872.589,176.482 871.578,176.199 871.364,175.853 C870.582,174.588 871.824,172.147 873.86,170.944 C875.009,170.265 876.589,168.521 877.372,167.067 C878.78,164.453 878.618,162.652 876.532,157.731 C876.333,157.26 877.077,155.796 878.186,154.478 C879.862,152.486 880.123,151.602 879.732,149.242 C879.073,145.275 879.1,143.566 879.829,143.044 C882.361,141.229 884.495,132.929 885.523,120.891 C885.867,116.867 888.011,117.286 888.119,121.398 C888.242,126.106 889.133,130.961 890.085,132.108 C890.699,132.848 890.69,133.637 890.052,135.038 C888.706,137.992 889,139.637 891.122,141.028 C893.429,142.539 893.373,144.384 890.896,148.481 C888.437,152.548 888.833,156.874 891.891,159.348 C892.409,159.767 893.052,160.853 893.321,161.761 C893.706,163.059 893.315,163.706 891.495,164.781 C888.68,166.444 888.584,168.073 891.082,171.75 C892.153,173.326 892.986,175.64 892.986,177.04 C892.986,179.191 892.726,179.529 891.07,179.529 C889.619,179.529 888.836,180.195 887.846,182.271 C886.54,185.009 886.542,185.016 888.615,186.8 C889.758,187.782 891.294,188.923 892.03,189.335 C893.116,189.943 893.388,191.236 893.48,196.243 C893.601,202.82 893.003,203.897 889.228,203.897 C888.363,203.897 887.655,204.198 887.655,204.566 C887.655,205.775 889.523,206.817 893.377,207.758 C899.994,209.375 901.672,211.109 898.126,212.665 C895.515,213.811 895.881,216.405 898.697,216.712 C899.954,216.849 901.307,217.277 901.705,217.664 C902.103,218.05 903.197,218.367 904.135,218.367 C905.074,218.367 906.054,218.709 906.313,219.128 C906.608,219.605 904.961,219.89 901.899,219.89 C897.04,219.89 897.01,219.903 896.307,222.365 C895.618,224.772 895.461,224.851 890.533,225.277 C887.747,225.518 885.017,226.078 884.467,226.522 C883.917,226.966 882.386,227.56 881.066,227.842 C879.096,228.263 878.447,228.043 877.449,226.618 C876.78,225.663 876.232,224.143 876.232,223.24 C876.232,220.576 874.439,219.707 869.759,220.103 C865.52,220.461 862.525,222.145 862.525,224.169 C862.525,224.718 861.781,225.565 860.872,226.051 C859.505,226.783 859.046,226.7 858.224,225.576 C857.677,224.827 856.364,223.245 855.308,222.059 C854.251,220.873 853.386,219.586 853.386,219.198 C853.386,218.811 853.117,218.379 852.788,218.24 C852.458,218.1 851.407,216.872 850.451,215.511 C848.661,212.961 846.914,212.316 846.323,213.988 C846.137,214.511 846.915,216.824 848.051,219.128 C849.188,221.432 850.738,225.03 851.496,227.124 C853.058,231.435 856.073,235.12 858.039,235.12 C858.765,235.12 860.526,236.483 861.952,238.148 C864.306,240.899 869.533,245.02 870.667,245.02 C870.919,245.02 872.617,246.242 874.44,247.736 C878.273,250.877 879.068,254.158 875.997,254.158 C875.03,254.158 873.574,253.655 872.761,253.04 C871.948,252.425 870.191,251.911 868.857,251.898 C865.889,251.868 863.167,250.884 861.532,249.249 C859.986,247.703 852.48,242.735 851.69,242.735 C850.563,242.735 851.113,246 852.662,248.507 C853.52,249.896 856.471,252.636 859.219,254.597 C861.968,256.559 867.092,260.911 870.605,264.27 C876.419,269.828 876.994,270.637 876.994,273.265 C876.994,277.889 875.159,277.841 870.158,273.086 C868.725,271.724 867.41,271.293 864.687,271.293 C861.813,271.293 860.668,270.877 858.916,269.198 C856.491,266.876 854.54,266.507 853.873,268.246 C853.327,269.668 852.287,269.703 850.93,268.347 C850.357,267.774 849.133,267.066 848.211,266.773 C846.166,266.124 845.938,267.773 847.7,270.463 C848.912,272.312 849.369,273.879 850.105,278.71 C850.826,283.443 847.764,285.51 844.909,282.218 C844.127,281.316 843.487,280.321 843.487,280.005 C843.487,279.301 836.139,273.958 835.172,273.958 C834.789,273.958 834.361,273.701 834.221,273.387 C833.81,272.462 822.667,267.063 821.212,267.085 C819.131,267.115 819.648,269.321 821.973,270.335 C825.224,271.753 831.535,276.556 836.524,281.407 C840.403,285.179 841.138,286.337 841.597,289.398 C842.564,295.846 840.468,297.317 837.562,292.229 C835.678,288.93 833.551,288.296 831.276,290.355 C830.09,291.428 829.872,291.2 828.545,287.508 C827.684,285.113 826.582,283.395 825.811,283.247 C824.717,283.036 824.486,283.786 824.294,288.161 C824.077,293.113 823.959,293.396 821.402,295.112 C819.936,296.096 817.851,297.688 816.767,298.651 C813.54,301.519 808.083,304.419 805.914,304.419 C801.474,304.419 804.214,301.373 814.455,294.926 C816.736,293.49 817.477,291.961 816.257,291.207 C815.941,291.011 813.285,291.668 810.355,292.666 C803.432,295.024 802.364,295.017 802.364,292.615 C802.364,290.919 802.049,290.712 799.47,290.712 C797.879,290.712 796.251,291.012 795.853,291.379 C794.375,292.743 788.152,295.809 784.389,297.027 C781.636,297.918 779.525,298.119 777.154,297.714 C773.993,297.174 773.807,297.003 773.807,294.636 C773.807,292.368 774.231,291.894 778.264,289.662 C780.716,288.305 783.046,286.616 783.442,285.907 C784.066,284.793 783.755,284.619 781.137,284.619 C779.473,284.619 776.394,285.016 774.294,285.5 C771.015,286.257 770.203,286.201 768.525,285.102 C767.451,284.398 766.572,283.27 766.572,282.595 C766.572,280.995 770.075,277.766 771.81,277.766 C773.498,277.766 776.803,274.347 776.144,273.282 C775.81,272.741 775.013,272.738 773.61,273.271 C772.485,273.699 769.591,273.891 767.181,273.698 C763.285,273.386 762.42,273.597 759.401,275.598 L756.003,277.848 L752.916,275.805 C749.135,273.303 748.06,273.909 746.406,279.478 C745.783,281.576 744.883,283.762 744.407,284.336 C742.999,286.033 740.716,285.54 738.66,283.096 C736.348,280.349 735.371,280.266 732.552,282.576 C729.014,285.477 725.914,286.441 723.962,285.249 C722.532,284.376 722.341,283.672 722.546,280.062 C722.748,276.533 722.572,275.844 721.411,275.62 C720.597,275.462 719.037,276.415 717.577,277.964 C716.223,279.4 713.585,281.551 711.715,282.746 C709.845,283.94 707.63,285.493 706.792,286.196 C701.672,290.498 693.684,293.316 692.95,291.08 C692.604,290.026 698.76,283.42 701.33,282.086 C704.45,280.468 710.981,274.63 710.981,273.461 C710.981,271.685 706.579,272.308 701.37,274.82 C697.979,276.456 694.585,279.04 690.567,283.048 C683.391,290.205 678.235,292.628 678.235,288.844 C678.235,288.286 677.675,287.613 676.991,287.351 C675.479,286.771 670.765,287.576 670.186,288.513 C669.579,289.495 666.507,289.34 665.442,288.275 C663.195,286.028 664.868,281.777 670.238,276.087 C672.177,274.032 673.623,271.941 673.449,271.441 C673.018,270.196 668.219,270.355 657.293,271.977 C640.916,274.408 630.502,277.573 617.262,284.142 C613.373,286.071 610.039,287.499 609.853,287.313 C609.667,287.127 611.18,286.185 613.215,285.219 C617.273,283.292 618.658,280.801 615.655,280.827 C614.682,280.835 610.99,281.863 607.45,283.111 C603.91,284.36 600.043,285.381 598.858,285.381 C597.673,285.381 595.473,285.895 593.969,286.523 C592.465,287.151 590.759,287.665 590.177,287.665 C588.92,287.665 582.385,290.58 580.76,291.866 C580.131,292.363 578.075,293.585 576.19,294.582 C574.306,295.578 571.544,297.319 570.053,298.451 C568.562,299.583 566.335,300.752 565.103,301.048 C563.082,301.533 563.229,301.297 566.602,298.624 C576.049,291.137 576.505,288.159 567.809,290.739 C566.345,291.173 563.092,291.825 560.579,292.188 C547.799,294.033 540.679,295.586 537.367,297.249 C535.352,298.261 533.24,299.083 532.673,299.077 C532.105,299.071 528.728,300.235 525.168,301.663 C521.608,303.091 516.877,304.803 514.654,305.467 C510.028,306.85 486.057,308.11 485.375,307.007 C485.141,306.628 487.626,306.237 490.922,306.134 C494.206,306.031 499.057,305.407 501.702,304.746 C504.347,304.086 507.92,303.247 509.642,302.883 C512.396,302.3 514.265,301.449 520.69,297.852 C522.663,296.747 526.691,292.891 526.691,292.107 C526.691,291.774 525.849,291.291 524.819,291.032 C521.12,290.104 520.859,288.613 523.909,285.82 C525.439,284.419 526.691,282.89 526.691,282.422 C526.691,281.447 524.434,279.044 522.502,277.963 C521.436,277.367 521.348,276.927 522.035,275.643 C524.149,271.694 522.228,270.456 518.563,273.406 C515.399,275.953 513.094,276.838 508.415,277.302 C506.111,277.531 500.971,278.237 496.992,278.87 C487.395,280.399 461.9,280.43 450.387,278.926 C445.654,278.308 440.239,277.816 438.354,277.833 C436.469,277.85 429.273,277.627 422.362,277.337 C410.332,276.833 397.691,277.663 392.662,279.289 C391.615,279.627 387.16,280.311 382.763,280.81 C378.365,281.308 374.081,282.011 373.243,282.372 C372.406,282.733 369.836,283.188 367.532,283.384 C361.157,283.925 358.785,284.582 353.81,287.182 C337.172,295.879 320.953,303.715 318.033,304.466 C316.148,304.951 313.92,305.621 313.083,305.955 C311.035,306.771 305.24,308.142 302.421,308.476 C301.165,308.625 299.623,308.947 298.995,309.191 C298.366,309.435 294.425,310.208 290.237,310.908 C286.049,311.608 282.027,312.49 281.299,312.869 C280.572,313.248 279.412,313.557 278.722,313.557 C275.638,313.557 271.58,315.357 271.58,316.724 C271.58,317.576 272.127,318.127 272.976,318.127 C273.744,318.127 274.609,318.364 274.899,318.654 C275.493,319.248 276.094,319.356 284.34,320.357 C287.583,320.751 290.922,321.238 291.76,321.44 C292.598,321.642 294.996,322.224 297.091,322.732 C302.385,324.018 305.591,324.167 336.69,324.573 C365.181,324.945 381.6,325.777 383.709,326.957 C385.174,327.777 289.965,328.01 283.923,327.202 z M264.726,298.429 C269.542,297.503 275.137,296.415 277.159,296.013 C279.18,295.61 281.991,295.281 283.405,295.281 C286.605,295.281 289.618,294.032 292.304,291.594 C293.824,290.214 294.629,289.93 295.35,290.521 C295.888,290.963 297.175,291.444 298.208,291.589 C299.746,291.806 300.412,291.267 301.882,288.617 C303.355,285.963 303.982,285.457 305.368,285.805 C307.231,286.272 309.129,284.616 309.998,281.764 C310.652,279.618 311.683,279.562 312.342,281.638 C312.733,282.87 313.259,283.122 314.693,282.762 C315.709,282.507 317.195,282.648 317.995,283.076 C319.174,283.707 319.745,283.476 321.022,281.853 C321.888,280.752 322.951,278.537 323.383,276.93 C323.816,275.323 324.744,273.687 325.445,273.295 C326.518,272.694 326.578,272.268 325.82,270.604 C325.324,269.517 324.44,268.627 323.854,268.627 C323.268,268.627 322.362,268.113 321.84,267.485 C321.319,266.857 319.918,266.343 318.727,266.343 C317.536,266.343 315.436,265.86 314.06,265.27 C310.277,263.647 303.61,261.773 301.617,261.773 C300.643,261.773 299.662,261.476 299.437,261.112 C299.212,260.748 297.581,260.219 295.813,259.936 C294.044,259.654 292.237,259.141 291.798,258.798 C291.358,258.455 288.428,257.968 285.287,257.715 C282.146,257.462 274.607,256.421 268.533,255.401 C262.46,254.382 254.792,253.324 251.493,253.051 C245.517,252.556 236.855,250.704 235.407,249.612 C234.988,249.296 233.025,248.827 231.045,248.569 C229.064,248.311 226.666,247.696 225.714,247.202 C224.763,246.709 223.38,246.011 222.642,245.651 C219.987,244.355 214.777,242.837 211.219,242.322 C209.224,242.034 207.405,241.495 207.176,241.124 C206.947,240.754 206.18,240.443 205.472,240.434 C204.764,240.424 202.169,239.433 199.706,238.231 C197.243,237.029 194.691,236.124 194.036,236.221 C191.685,236.566 192.338,238.114 195.52,239.737 C197.301,240.645 199.256,241.887 199.865,242.495 C200.473,243.104 201.78,244.132 202.768,244.779 C203.756,245.427 204.565,246.431 204.565,247.011 C204.565,248.467 201.931,248.338 200.671,246.82 C198.919,244.708 194.035,241.974 192.015,241.974 C189.507,241.974 189.468,244.072 191.964,244.698 C192.991,244.956 195.215,246.96 196.905,249.151 C198.963,251.818 201.41,253.87 204.309,255.36 C209.633,258.096 214.465,262.519 214.465,264.657 C214.465,266.614 213.108,267.575 211.962,266.429 C211.496,265.963 210.497,265.581 209.743,265.581 C208.99,265.581 208.373,265.288 208.373,264.93 C208.373,264.384 204.122,262.13 194.928,257.798 C193.317,257.039 191.619,257.477 191.619,258.651 C191.619,258.979 192.99,260.645 194.665,262.354 C196.341,264.063 197.711,265.842 197.711,266.307 C197.711,267.982 195.437,267.969 192.424,266.275 C190.734,265.326 189.262,264.695 189.153,264.875 C189.043,265.054 188.204,266.603 187.287,268.316 L185.62,271.432 L190.143,275.908 C195.994,281.699 196.03,282.681 190.361,281.972 C186.278,281.462 184.324,280.893 180.388,279.066 C178.246,278.072 177.705,278.581 178.316,281.015 C178.901,283.347 181.888,284.915 188.876,286.558 C191.765,287.237 194.678,288.086 195.349,288.444 C196.877,289.259 203.988,292.442 207.895,294.059 C209.516,294.731 211.608,295.281 212.542,295.281 C213.477,295.281 216.605,296.19 219.493,297.301 C224.108,299.077 226.224,299.377 236.93,299.776 C253.633,300.399 254.771,300.344 264.726,298.429 z M548.345,285.446 C550.048,284.645 553.154,283.255 555.249,282.359 C557.343,281.462 559.742,280.431 560.579,280.067 C561.417,279.704 563.644,278.951 565.529,278.396 C568.124,277.63 569.015,276.968 569.2,275.668 C569.512,273.468 568.402,273.122 563.245,273.815 C560.081,274.24 558.545,274.093 556.967,273.216 C554.953,272.096 554.064,269.489 555.629,269.294 C556.048,269.241 556.733,269.113 557.152,269.008 C557.571,268.903 558.362,268.775 558.911,268.722 C559.459,268.67 560.573,268.139 561.386,267.542 C562.823,266.486 562.802,266.392 560.627,264.115 C558.098,261.467 555.947,261.094 555.283,263.189 C554.83,264.615 552.43,265.818 542.943,269.376 C541.191,270.033 540.118,270.054 538.995,269.453 C535.286,267.468 534.075,269.067 536.19,273.157 C537.216,275.141 537.183,275.491 535.807,277.24 C533.519,280.149 534.704,282.17 540.694,285.571 C543.658,287.255 544.534,287.241 548.345,285.446 z M607.261,266.19 C608.534,264.917 608.401,263.197 606.858,260.994 C606.035,259.819 605.509,257.543 605.456,254.923 C605.383,251.404 605.747,250.181 607.724,247.305 C609.783,244.308 610.086,243.208 610.136,238.547 C610.181,234.368 610.592,232.525 612.037,230.015 C613.497,227.478 613.685,226.618 612.941,225.874 C612.197,225.131 611.59,225.321 610.016,226.791 C606.623,229.962 605.733,232.458 606.321,237.162 C606.822,241.172 606.74,241.467 604.656,243.172 C603.45,244.158 601.937,244.977 601.294,244.993 C600.628,245.008 599.088,247.122 597.715,249.906 C596.28,252.816 594.674,254.993 593.744,255.288 C592.885,255.561 592.183,256.339 592.183,257.016 C592.183,258.432 595.09,261.773 596.322,261.773 C596.777,261.773 598.516,262.966 600.187,264.424 C603.338,267.174 605.69,267.761 607.261,266.19 z M525.893,262.198 C526.394,261.594 527.893,260.995 529.223,260.866 C531.822,260.614 531.807,260.674 530.726,254.92 C530.23,252.282 529.715,251.44 528.49,251.263 C527.227,251.081 526.794,251.552 526.397,253.535 C526.122,254.911 525.035,257.34 523.981,258.932 C522.927,260.524 522.27,262.158 522.519,262.562 C523.184,263.638 524.847,263.459 525.893,262.198 z M650.059,258.716 C653.684,257.224 656.116,256.93 668.156,256.527 L682.066,256.062 L686.645,251.265 C689.164,248.626 691.003,246.109 690.732,245.671 C690.441,245.2 689.109,245.073 687.474,245.36 C683.107,246.126 667.417,248.319 659.958,249.206 C654.003,249.914 661.304,247.697 673.666,245.043 C681.441,243.374 684.599,240.788 681.569,238.573 C679.338,236.942 681.113,234.845 688.684,230.17 C696.938,225.074 698.796,223.514 698.796,221.685 C698.796,220.614 698.154,220.501 694.341,220.9 C691.097,221.239 689.491,221.073 688.439,220.291 C686.565,218.9 687.503,217.245 691.823,214.318 C694.898,212.235 695.97,210.091 694.037,209.891 C689.559,209.429 685.161,210.423 679.792,213.11 C676.527,214.745 673.411,216.082 672.868,216.082 C672.326,216.082 671.341,216.541 670.68,217.102 C670.019,217.663 667.421,218.918 664.909,219.892 C662.395,220.865 659.997,221.901 659.578,222.194 C659.159,222.487 656.589,223.424 653.866,224.276 C651.144,225.129 646.222,226.874 642.93,228.155 C634.813,231.312 630.996,231.831 628.402,230.131 C625.622,228.309 624.785,229.495 626.223,233.216 C626.871,234.892 627.564,237.719 627.764,239.499 C628.066,242.183 628.407,242.738 629.764,242.752 C630.665,242.762 632.241,243.415 633.268,244.204 C634.86,245.428 634.986,245.816 634.126,246.852 C633.572,247.52 632.475,248.066 631.689,248.066 C629.713,248.066 629.898,248.851 632.353,250.89 C634.397,252.586 634.411,252.656 632.969,253.774 C632.156,254.404 630.871,254.92 630.113,254.92 C628.005,254.92 628.441,257.587 630.719,258.625 C631.809,259.122 633.78,259.341 635.097,259.112 C636.537,258.863 638.253,259.142 639.397,259.813 C641.788,261.214 644.719,260.913 650.059,258.716 z M371.291,257.644 C371.811,257.017 372.091,254.852 371.956,252.513 C371.743,248.865 371.496,248.36 369.436,247.387 C366.659,246.075 366.17,245.396 365.543,241.974 C364.986,238.937 363.273,236.643 361.561,236.643 C360.92,236.643 359.611,237.38 358.653,238.28 C356.52,240.284 356.168,239.656 355.784,233.163 C355.637,230.679 355.478,228.243 355.432,227.75 C355.284,226.178 353.018,224.459 351.094,224.459 C349.803,224.459 348.784,225.217 347.766,226.934 C345.552,230.67 344.889,231.223 343.162,230.771 C341.1,230.232 339.051,226.253 339.245,223.165 C339.386,220.922 339.176,220.686 336.603,220.204 C334.216,219.756 333.605,219.945 332.41,221.498 C331.641,222.498 330.795,224.43 330.53,225.791 C330.265,227.153 329.737,228.266 329.356,228.266 C328.976,228.266 328.88,227.41 329.143,226.363 C329.437,225.189 329.297,224.459 328.777,224.459 C328.312,224.459 327.933,223.328 327.933,221.946 C327.933,220.563 327.521,219.021 327.019,218.519 C325.712,217.212 322.578,217.391 320.949,218.865 C319.647,220.043 319.465,220.018 318.134,218.484 C316.579,216.691 314.987,216.319 314.987,217.75 C314.987,218.248 315.396,220.635 315.895,223.055 C317.232,229.527 319.367,229.846 321.97,223.962 C322.784,222.121 323.779,220.818 324.181,221.066 C324.583,221.315 324.711,221.842 324.466,222.238 C323.67,223.526 325.76,231.649 327.325,233.348 C328.809,234.959 328.912,234.967 331.247,233.673 C333.212,232.584 333.832,231.564 334.684,228.021 C335.255,225.643 336.026,223.697 336.397,223.697 C336.768,223.697 337.071,225.506 337.071,227.716 C337.071,232.059 338.583,235.118 340.731,235.123 C341.441,235.125 343.167,235.825 344.568,236.679 C347.559,238.502 348.816,237.879 350.56,233.705 C351.148,232.299 351.762,231.28 351.924,231.443 C352.086,231.605 352.782,234.469 353.47,237.807 C355.185,246.121 356.664,247.575 359.887,244.115 C361.012,242.908 361.463,242.75 361.523,243.544 C362.094,251.039 363.011,253.214 365.735,253.533 C367.369,253.724 367.963,254.317 368.462,256.252 C369.156,258.95 369.902,259.317 371.291,257.644 z M389.71,255.11 C395.26,250.583 395.255,250.589 395.174,247.701 C395.129,246.136 395.585,243.679 396.186,242.239 C397.406,239.32 397.064,238.166 394.977,238.166 C393.467,238.166 391.901,241.558 391.901,244.826 C391.901,246.891 389.803,250.877 388.442,251.4 C387.961,251.585 385.959,250.69 383.993,249.411 C380.923,247.413 380.156,247.207 378.545,247.941 C377.299,248.508 376.67,249.418 376.67,250.652 C376.67,252.995 378.058,253.495 380.38,251.988 C382.045,250.907 382.265,250.931 383.201,252.297 C384.653,254.416 386.734,256.443 387.456,256.443 C387.797,256.443 388.811,255.843 389.71,255.11 z M567.052,252.355 C570.34,251.588 571.241,251.062 571.241,249.912 C571.241,248.718 570.437,248.319 566.892,247.757 C563.636,247.241 562.25,247.312 561.371,248.041 C559.804,249.341 559.885,251.615 561.531,252.574 C562.264,253.001 562.864,253.346 562.864,253.341 C562.864,253.336 564.749,252.892 567.052,252.355 z M427.149,245.773 C429.011,244.309 430.838,240.358 431.881,235.54 L432.367,233.294 L434.273,235.73 C436.482,238.553 437.589,238.75 439.481,236.66 C440.832,235.168 440.868,235.174 443.685,237.405 C446.434,239.582 446.567,239.609 447.802,238.244 C448.504,237.469 450.035,234.345 451.203,231.303 L453.328,225.772 L454.306,229.265 C454.844,231.187 455.963,233.373 456.792,234.123 C458.245,235.439 458.344,235.43 459.559,233.871 C460.252,232.982 461.198,231.617 461.66,230.837 C462.353,229.669 462.705,229.588 463.658,230.379 C464.294,230.907 465.326,231.143 465.95,230.903 C467.171,230.434 468.815,227.372 468.815,225.565 C468.815,223.845 472.672,224.219 475.682,226.231 C479.209,228.589 480.845,229.132 481.454,228.148 C481.77,227.635 483.34,227.518 485.695,227.83 C489.139,228.287 489.611,228.149 491.689,226.07 C494.3,223.46 494.429,222.766 492.637,220.974 C491.399,219.737 491.275,219.796 490.35,222.062 C489.384,224.429 489.306,224.459 484.028,224.459 C479.64,224.459 478.145,224.118 475.669,222.555 C473.907,221.443 471.522,220.651 469.934,220.651 C467.529,220.651 467.081,220.97 466.065,223.402 C465.005,225.939 464.727,226.116 462.502,225.671 C460.578,225.286 459.838,225.52 458.855,226.823 C457.643,228.429 457.606,228.396 456.734,224.936 C455.933,221.755 455.631,221.413 453.629,221.413 C451.074,221.413 448.254,224.414 448.254,227.134 C448.254,228.073 447.743,230.064 447.119,231.559 C446.005,234.225 445.944,234.255 443.882,233.16 C442.524,232.44 440.775,232.208 438.938,232.505 C436.409,232.914 435.997,232.748 435.199,230.996 C434.22,228.847 431.508,228.326 430.104,230.017 C429.652,230.562 428.668,233.348 427.917,236.208 C426.195,242.762 424.671,244.001 420.839,241.956 C419.373,241.174 417.488,240.196 416.651,239.783 C415.813,239.371 414.008,237.959 412.641,236.646 C408.36,232.538 403.504,234.955 404.615,240.641 C405.162,243.439 406.673,243.289 408.124,240.294 L409.306,237.852 L410.694,240.315 C411.46,241.675 412.934,242.987 413.985,243.244 C415.032,243.501 416.917,244.261 418.174,244.934 C423.138,247.592 424.657,247.734 427.149,245.773 z M590.66,243.097 C590.66,241.714 590.072,240.936 588.565,240.325 C586.491,239.483 580.931,239.264 580.2,239.996 C579.991,240.204 580.631,241.401 581.622,242.655 C583.159,244.599 583.959,244.942 587.042,244.978 C590.414,245.017 590.66,244.889 590.66,243.097 z M61.7787,240.229 C63.8989,239.032 64.8942,237.918 65.0531,236.566 C65.2522,234.87 64.8659,234.498 62.0211,233.646 C60.228,233.108 57.9372,232.021 56.9306,231.229 C55.924,230.437 54.6325,229.789 54.0608,229.789 C52.7338,229.789 52.7602,232.047 54.1078,233.824 C54.9278,234.905 54.9628,235.678 54.2742,237.503 C53.5178,239.506 53.5981,239.955 54.8804,240.893 C56.897,242.368 58.2156,242.241 61.7787,240.229 z M561.95,239.964 C565.087,238.356 565.713,237.326 564.217,236.232 C563.241,235.518 563.166,234.917 563.822,233.036 C564.923,229.878 563.879,229.028 558.904,229.028 C555.795,229.028 554.868,229.295 554.868,230.189 C554.868,230.828 555.724,231.676 556.772,232.074 C559.374,233.063 559.162,233.954 555.964,235.472 C554.473,236.179 553.064,237.251 552.833,237.853 C551.635,240.974 557.38,242.305 561.95,239.964 z M595.99,234.739 C595.99,233.692 595.731,232.836 595.415,232.836 C595.098,232.836 594.354,231.722 593.761,230.361 C593.168,228.999 591.88,226.6 590.9,225.03 L589.117,222.174 L590.861,222.174 C593.048,222.174 595.99,220.168 595.99,218.677 C595.99,217.062 593.703,213.797 592.571,213.797 C592.043,213.797 591.406,214.825 591.155,216.082 C590.721,218.249 590.504,218.367 586.952,218.367 C582.05,218.367 581.544,219.684 584.691,224.258 L587.095,227.751 L585.368,229.149 C583.443,230.708 583.735,232.828 585.876,232.848 C586.622,232.855 588.603,233.679 590.279,234.68 C594.388,237.135 595.99,237.151 595.99,234.739 z M206.496,226.699 C206.77,226.256 206.061,224.484 204.921,222.762 C202.948,219.78 202.915,219.581 204.233,218.617 C204.995,218.061 206.066,217.605 206.614,217.605 C207.163,217.605 207.611,216.91 207.611,216.061 C207.611,214.612 207.293,214.548 202.471,215.021 C197.275,215.53 195.157,216.414 195.641,217.868 C196.082,219.19 204.116,227.298 205.091,227.405 C205.59,227.46 206.222,227.142 206.496,226.699 z M118.894,225.399 C119.314,225.091 120.101,223.983 120.643,222.936 C121.184,221.889 123.706,218.804 126.246,216.082 C132.745,209.116 133.529,206.232 128.933,206.194 C126.976,206.177 124.594,204.774 124.665,203.68 C124.698,203.171 127.353,200.694 130.567,198.175 C135.533,194.282 136.445,193.209 136.655,191.02 L136.902,188.444 L132.747,188.932 C126.074,189.717 125.985,188.461 132.254,181.939 C135.167,178.908 137.551,175.938 137.551,175.34 C137.551,173.346 134.896,172.605 131.717,173.713 C126.115,175.664 124.967,172.691 129.981,169.216 C135.357,165.491 135.237,163.518 129.437,160.3 C126.692,158.777 117.416,158.422 116.56,159.808 C116.214,160.367 114.447,160.477 111.273,160.137 C105.328,159.501 101.565,160.168 100.377,162.071 C99.145,164.043 100.463,166.113 104.016,167.786 C105.497,168.483 107.679,169.526 108.865,170.103 C110.051,170.68 111.358,171.152 111.771,171.152 C113.133,171.152 117.751,175.117 117.751,176.287 C117.751,177.167 117.194,177.323 115.357,176.956 C112.536,176.391 110.897,177.481 110.897,179.921 C110.897,183.686 107.633,182.463 104.257,177.434 C101.923,173.958 98.0533,176.046 99.5136,179.993 C100.074,181.507 101.023,182.475 107.661,188.292 C110.988,191.208 111.806,193.697 109.704,194.503 C108.318,195.035 105.241,193.593 102.528,191.142 C101.411,190.133 99.6511,189.428 98.2446,189.428 C96.2053,189.428 95.8571,189.706 95.8571,191.333 C95.8571,194.295 101.146,199.693 106.752,202.453 C109.455,203.783 112.498,205.643 113.516,206.586 C115.716,208.625 116.823,213.305 115.486,214.916 C114.698,215.865 114.351,215.811 112.972,214.527 C112.092,213.707 110.964,213.036 110.466,213.036 C109.968,213.036 109.134,212.522 108.613,211.894 C107.338,210.358 100.236,210.291 100.236,211.815 C100.236,212.4 101.844,214.199 103.809,215.813 C105.774,217.427 109.204,220.375 111.432,222.365 C115.312,225.83 117.239,226.613 118.894,225.399 z M780.986,214.075 C782.461,213.78 784.151,212.614 785.314,211.089 C786.976,208.91 787.094,208.383 786.233,207.004 C785.689,206.133 784.755,205.421 784.158,205.421 C783.561,205.421 783.298,205.194 783.575,204.918 C783.852,204.641 783.395,203.936 782.56,203.351 C780.555,201.947 780.644,200.52 782.99,196.518 C785.371,192.455 785.016,190.937 780.751,186.959 C776.795,183.269 774.163,183.267 773.078,186.954 C772.677,188.315 771.894,189.428 771.338,189.428 C770.35,189.428 766.569,187.29 765.811,186.302 C765.601,186.029 763.545,185.168 761.242,184.387 C758.391,183.421 755.891,181.81 753.414,179.344 C749.723,175.67 746.592,174.632 745.758,176.806 C744.895,179.054 746.947,183.563 750.329,186.849 C753.64,190.067 753.94,190.19 758.487,190.19 C762.851,190.19 763.426,190.395 766.077,192.895 C769.576,196.196 772.464,202.305 770.979,203.263 C769.769,204.043 763.938,203.302 760.861,201.977 C757.747,200.637 752.103,199.885 752.103,200.812 C752.103,201.982 756.147,205.421 757.523,205.421 C758.209,205.421 759.197,205.935 759.719,206.563 C760.24,207.191 761.021,207.705 761.453,207.705 C761.886,207.705 763.363,208.562 764.736,209.609 C766.313,210.812 768.226,211.513 769.93,211.513 C771.414,211.513 773.75,212.197 775.121,213.033 C777.953,214.759 777.747,214.723 780.986,214.075 z M559.785,210.942 C560.371,208.949 560.91,208.467 562.547,208.467 C563.666,208.467 565.026,207.93 565.57,207.274 C566.392,206.285 566.332,205.696 565.219,203.812 C563.751,201.327 564.342,199.808 567.121,198.926 C569.185,198.271 568.923,195.924 566.671,194.898 C564.171,193.758 564.269,192.997 567.052,191.946 C570.122,190.787 569.929,189.762 566.291,187.905 C562.747,186.098 562.001,183.336 565.055,183.336 C567.58,183.336 568.813,181.583 568.212,178.848 C567.834,177.127 568.093,176.203 569.287,175.009 C571.937,172.36 571.297,171.316 566.671,170.738 C564.368,170.45 562.483,169.939 562.483,169.602 C562.483,169.264 561.459,168.763 560.207,168.488 C558.955,168.213 557.736,167.672 557.497,167.286 C557.258,166.899 556.426,166.583 555.648,166.583 C554.87,166.583 554.119,166.326 553.979,166.012 C553.673,165.321 550.901,163.772 540.399,158.419 C534.329,155.325 531.297,154.235 527.815,153.896 C521.868,153.316 520.78,154.333 522.031,159.302 C523.285,164.283 523.104,165.476 520.944,166.46 C518.563,167.545 515.268,167.616 515.268,166.583 C515.268,166.164 514.84,165.817 514.316,165.813 C513.793,165.808 511.931,164.434 510.179,162.758 C508.427,161.082 505.942,159.501 504.658,159.244 C503.373,158.987 502.322,158.477 502.322,158.111 C502.322,157.744 501.808,157.444 501.18,157.444 C500.552,157.444 500.038,157.137 500.038,156.762 C500.038,155.502 492.708,151.361 488.929,150.486 C484.698,149.506 479.052,149.238 478.309,149.981 C478.036,150.254 478.248,151.679 478.78,153.149 C480.235,157.173 479.002,158.204 472.72,158.215 C467.602,158.224 461.426,159.501 458.233,161.21 C457.268,161.726 453.686,164.129 450.272,166.551 C444.371,170.736 442.675,171.491 437.088,172.424 C432.316,173.22 430.844,166.612 435.055,163.3 C436.836,161.899 437.567,157.839 436.133,157.317 C435.749,157.178 435.197,155.781 434.907,154.213 C434.441,151.697 434.635,151.137 436.557,149.45 C437.755,148.399 439.935,146.94 441.4,146.209 C442.866,145.478 444.065,144.39 444.065,143.792 C444.065,142.177 440.047,141.391 436.499,142.311 C433.18,143.172 423.913,144.487 418.935,144.803 C410.275,145.352 406.44,148.488 406.294,155.139 C406.173,160.611 405.44,162.362 403.157,162.63 C401.29,162.849 401.107,162.603 400.606,159.203 C400.309,157.189 399.685,155.289 399.22,154.981 C397.897,154.106 395.022,154.3 392.397,155.442 C385.86,158.285 377.636,159.63 372.002,158.777 C368.754,158.285 366.324,158.322 364.342,158.893 C362.746,159.353 359.983,160.102 358.203,160.557 C355.193,161.327 351.46,162.771 348.314,164.382 C347.586,164.755 346.171,165.06 345.169,165.06 C343.585,165.06 341.354,167.203 337.318,172.604 C336.947,173.099 331.053,170.256 330.119,169.13 C328.501,167.181 325.141,167.965 321.459,171.153 L317.938,174.2 L312.672,173.71 C309.03,173.372 307.065,173.504 306.299,174.14 C305.689,174.646 302.884,175.386 300.066,175.785 C295.239,176.469 293.28,177.291 279.693,184.334 C276.887,185.788 274.292,186.514 267.193,187.827 C263.305,188.547 263.167,188.665 262.508,191.865 C261.999,194.34 263.058,200.961 264.137,202.039 C265.125,203.028 267.165,200.596 269.111,196.108 C270.159,193.691 271.295,191.713 271.634,191.713 C272.906,191.713 273.082,193.21 272.238,196.865 C271.76,198.936 271.603,201.88 271.889,203.407 C272.337,205.791 272.702,206.182 274.479,206.182 C275.798,206.182 277.068,205.491 277.978,204.278 C279.707,201.976 280.802,201.887 282.622,203.897 C284.456,205.924 285.753,205.818 287.261,203.517 C288.601,201.471 289.84,201.021 289.881,202.565 C289.895,203.088 290.56,204.3 291.359,205.258 C292.798,206.984 292.835,206.987 295.712,205.637 C298.01,204.558 298.827,203.601 299.638,201.04 C300.855,197.195 301.667,197.003 303.409,200.147 C305.736,204.348 306.303,204.835 309.239,205.159 C311.227,205.378 312.576,205.081 313.534,204.215 C314.302,203.52 315.417,203.138 316.013,203.367 C317.969,204.118 320.317,201.734 320.317,198.998 C320.317,194.109 322.017,194.33 325.896,199.723 C330.107,205.576 332.305,206.157 335.929,202.374 C338.006,200.206 340.117,199.366 340.117,200.708 C340.117,201.932 343.254,204.659 344.661,204.659 C345.453,204.659 346.614,204.145 347.243,203.517 C347.871,202.888 349.62,202.374 351.13,202.374 C353.461,202.374 354.114,201.972 355.448,199.709 C357.551,196.146 359.482,196.252 361.413,200.038 C363.411,203.954 364.496,204.556 365.859,202.504 C366.562,201.445 367.744,200.851 369.148,200.851 C370.353,200.851 371.34,200.509 371.34,200.09 C371.34,198.658 373.349,199.327 375.909,201.613 C378.81,204.203 378.978,204.229 383.128,202.751 C384.795,202.158 386.851,201.808 387.697,201.975 C395.039,203.423 395.562,203.325 397.698,200.096 C398.809,198.417 399.93,197.045 400.188,197.047 C400.447,197.049 401.821,198.14 403.242,199.472 L405.826,201.894 L407.621,199.807 C408.608,198.659 409.416,197.248 409.416,196.67 C409.416,196.092 409.789,194.655 410.245,193.476 L411.074,191.332 L413.926,194.618 L416.777,197.904 L419.379,194.451 C420.81,192.552 422.502,190.988 423.139,190.975 C423.776,190.962 425.147,192.513 426.185,194.421 L428.073,197.89 L431.605,197.407 C433.878,197.096 435.673,197.259 436.64,197.863 C437.814,198.596 438.923,198.604 441.714,197.902 C443.679,197.407 445.559,197.171 445.892,197.377 C446.225,197.583 447.471,196.735 448.661,195.494 C449.85,194.252 451.437,193.236 452.186,193.236 C452.936,193.236 454.139,192.294 454.86,191.142 C455.58,189.99 456.265,188.913 456.382,188.749 C457.009,187.864 459.055,190.832 459.767,193.661 C460.218,195.452 461.384,197.666 462.357,198.58 C464.374,200.475 468.387,200.786 471.198,199.265 C472.191,198.728 474.241,198.373 475.754,198.478 C479.514,198.738 480.993,197.091 481.024,192.611 C481.049,188.888 482.417,186.124 483.797,187.008 C484.24,187.292 485.183,189.923 485.894,192.855 C486.604,195.787 487.359,198.786 487.571,199.519 C487.995,200.986 490.514,201.329 491.318,200.029 C491.632,199.52 492.698,200.099 494.118,201.553 C496.893,204.391 497.367,204.434 498.966,201.994 C500.657,199.412 502.034,199.6 502.612,202.492 C502.877,203.814 503.475,205.356 503.943,205.919 C505.2,207.433 511.809,207.248 513.403,205.654 C514.615,204.442 514.75,204.442 515.636,205.654 C517.156,207.733 519.734,207.286 520.267,204.849 C521.379,199.776 521.602,199.768 525.306,204.659 C528.438,208.794 530.596,209.388 531.921,206.48 L532.858,204.425 L534.975,206.961 C537.003,209.39 537.166,209.446 538.833,208.278 C539.791,207.607 541.215,206.004 541.998,204.716 C543.795,201.761 545.44,201.741 547.097,204.654 C548.738,207.537 549.456,207.538 550.032,204.659 C550.732,201.158 552.337,201.885 552.951,205.982 C553.729,211.172 555.333,213.946 557.387,213.654 C558.518,213.493 559.291,212.619 559.785,210.942 z M593.664,201.282 C594.163,200.682 595.082,196.998 595.708,193.096 C596.333,189.194 597.137,185.706 597.494,185.344 C598.845,183.975 599.798,185.861 599.798,189.904 C599.798,194.367 600.754,197.044 602.349,197.044 C603.27,197.044 608.936,186.594 608.936,184.895 C608.936,184.456 609.279,184.098 609.698,184.098 C610.117,184.098 610.459,185.287 610.459,186.74 C610.459,188.793 610.969,189.76 612.744,191.072 C614.152,192.113 615.028,193.446 615.028,194.546 C615.028,197.107 617.24,197.681 618.955,195.563 C619.88,194.42 620.359,192.592 620.359,190.201 C620.359,184.212 621.096,181.848 623.122,181.34 C625.121,180.838 625.636,178.01 623.976,176.651 C623.453,176.222 618.501,175.752 612.972,175.606 C606.263,175.429 602.602,175.024 601.968,174.388 C601.444,173.865 599.971,173.414 598.694,173.387 C597.416,173.361 594.315,172.894 591.802,172.351 C588.908,171.725 586.736,171.617 585.879,172.057 C584.254,172.89 584.849,174.198 586.852,174.198 C590.543,174.198 588.722,177.269 583.453,179.932 C580.961,181.192 581.547,182.922 584.564,183.208 C589.08,183.637 590.592,185.867 587.233,187.144 C584.558,188.161 584.874,190.254 588.024,192.399 L590.709,194.228 L589.161,195.875 C587.202,197.961 587.221,198.506 589.327,200.588 C591.355,202.593 592.433,202.766 593.664,201.282 z M204.032,200.258 C204.707,199.513 205.158,197.958 205.035,196.804 C204.79,194.511 201.947,190.19 200.684,190.19 C199.34,190.19 194.75,186.327 194.26,184.783 C193.693,182.997 190.124,181.052 187.413,181.052 C183.836,181.052 185.581,183.431 193.721,189.652 C201.81,195.834 203.166,197.805 199.328,197.805 C198.122,197.805 196.733,198.292 196.239,198.886 C194.176,201.372 201.808,202.716 204.032,200.258 z M255.419,193.704 C257.495,193.695 257.88,193.43 257.704,192.132 C257.587,191.273 257.149,190.319 256.73,190.011 C255.241,188.918 251.285,189.447 249.665,190.957 C247.473,192.999 248.203,194.925 250.907,194.231 C252.015,193.947 254.046,193.709 255.419,193.704 z M222.01,183.801 C222.493,183.219 223.409,180.246 224.046,177.194 C224.682,174.141 225.377,171.362 225.59,171.017 C226.535,169.489 227.411,170.636 227.411,173.399 C227.411,175.054 227.782,178.138 228.236,180.253 C228.919,183.442 229.342,184.096 230.711,184.086 C233.486,184.066 234.307,183.015 236.078,177.214 C238.354,169.761 239.595,169.447 239.595,176.326 C239.595,179.649 239.951,181.914 240.547,182.396 C241.193,182.917 243.215,182.847 246.83,182.179 C249.762,181.637 255.073,180.799 258.634,180.316 C269.573,178.834 276.425,177.164 278.814,175.397 C280.071,174.468 283.416,172.79 286.249,171.668 C289.082,170.545 292.851,168.976 294.626,168.18 C301.824,164.95 308.798,162.882 313.844,162.481 C334.92,160.807 337.11,160.493 343.681,158.196 C351.339,155.52 357.9,153.512 363.175,152.23 C367.172,151.259 376.67,146.867 376.67,145.989 C376.67,145.686 377.613,145.245 378.764,145.01 C380.458,144.664 381.243,145.04 382.863,146.972 C384.835,149.323 384.923,149.347 388.194,148.421 C390.023,147.904 394.776,145.921 398.755,144.017 C416.114,135.706 417.28,135.371 428.63,135.423 C433.962,135.448 438.636,135.275 439.018,135.039 C439.4,134.803 440.934,134.454 442.427,134.263 C443.921,134.071 446.013,133.344 447.077,132.647 C449.129,131.303 453.118,131.506 459.15,133.261 C461.936,134.072 462.157,133.997 464.81,131.344 C467.247,128.907 467.609,128.045 467.903,123.98 C468.18,120.147 467.906,118.702 466.267,115.351 C465.184,113.137 463.161,109.965 461.772,108.303 C458.171,103.992 457.396,101.744 457.367,95.5344 C457.341,89.843 456.543,88.065 453.167,86.1684 C452.349,85.7094 450.675,83.9126 449.446,82.1755 C447.224,79.0358 447.217,78.9885 448.175,74.1653 C448.784,71.1052 448.921,67.9396 448.547,65.5931 C448.221,63.5468 448.048,61.3982 448.161,60.8184 C448.632,58.4133 447.458,56.1612 445.733,56.1612 C444.382,56.1612 443.533,57.1214 441.862,60.5399 C437.48,69.5077 427.093,86.0119 422.98,90.5417 C404.25,111.169 395.183,120.211 388.778,124.648 C386.098,126.505 383.791,128.304 383.651,128.646 C383.511,128.988 383.084,129.268 382.701,129.268 C382.318,129.268 380.335,130.467 378.295,131.933 C376.254,133.399 374.371,134.598 374.11,134.598 C373.019,134.598 367.532,137.289 367.532,137.824 C367.532,138.144 367.015,138.406 366.384,138.406 C365.753,138.406 363.611,139.232 361.625,140.241 C354.717,143.75 349.611,145.807 345.448,146.758 C343.144,147.285 340.472,148.02 339.51,148.392 C334.273,150.415 324.894,148.551 321.006,144.715 C317.6,141.354 317.247,141.232 312.434,141.754 C302.89,142.79 300.951,143.097 299.686,143.774 C298.911,144.189 292.63,144.195 284.033,143.789 C276.137,143.417 268.819,143.228 267.772,143.371 C261.132,144.277 254.173,145.508 252.541,146.065 C251.494,146.423 248.581,146.886 246.068,147.094 C235.119,148.003 235.267,149.964 246.449,152.144 C249.172,152.675 252.941,153.183 254.826,153.273 C261.602,153.596 268.933,154.621 269.894,155.38 C270.432,155.806 273.426,156.317 276.546,156.518 C283.574,156.969 285.146,158.238 282.014,160.932 C278.947,163.57 274.395,164.531 267.391,164.02 C255.433,163.147 248.33,162.268 246.83,161.475 C244.613,160.304 238.421,158.835 232.742,158.134 C226.908,157.413 200.661,157.237 198.916,157.907 C197.357,158.505 197.39,160.092 199.017,162.847 C200.164,164.789 200.188,165.193 199.208,166.167 C198.34,167.03 197.416,167.119 195.046,166.567 C190.743,165.565 189.335,165.655 189.335,166.934 C189.335,168.317 192.294,171.152 193.738,171.152 C195.543,171.152 203.028,175.999 203.495,177.47 C203.799,178.428 204.533,178.783 205.875,178.621 C207.472,178.428 207.85,177.936 208.011,175.842 C208.407,170.694 211.368,170.919 211.418,176.102 C211.461,180.648 212.161,181.813 214.846,181.813 C216.693,181.813 217.436,182.205 217.732,183.336 C218.193,185.099 220.707,185.372 222.01,183.801 z M153.163,180.481 C159.424,173.186 159.688,172.771 159.231,170.949 C158.907,169.658 159.355,168.225 160.706,166.234 C163.834,161.625 161.62,159.729 153.112,159.729 C148.963,159.729 148.176,160.94 150.909,163.118 C153.533,165.211 153.083,166.862 149.41,168.613 C146.837,169.84 146.765,169.991 147.143,173.372 C148.05,181.5 148.162,181.813 150.15,181.813 C151.178,181.813 152.534,181.213 153.163,180.481 z M688.9,170.223 C689.532,167.838 690.428,165.508 690.892,165.044 C692.159,163.777 694.227,166.214 694.227,168.972 C694.227,171.711 695.439,174.198 696.774,174.198 C697.308,174.198 700.254,171.432 703.321,168.052 C709.871,160.833 712.794,158.824 718.982,157.288 C722.631,156.382 723.595,155.827 723.789,154.515 C724.089,152.494 723.483,152.491 716.692,154.483 C710.433,156.32 701.471,157.571 699.007,156.953 C697.941,156.685 697.273,155.943 697.273,155.026 C697.273,153.507 702.172,148.306 703.602,148.306 C704.034,148.306 704.929,147.827 705.59,147.242 C706.251,146.657 708.335,145.666 710.219,145.039 C712.916,144.144 713.696,143.498 713.878,142.011 C714.264,138.859 712.259,137.645 706.665,137.645 C703.932,137.645 699.93,137.14 697.771,136.522 C695.613,135.905 689.049,135.031 683.185,134.58 C677.321,134.128 669.268,133.455 665.289,133.082 C650.173,131.667 642.022,131.438 637.113,132.289 C634.39,132.761 630.449,133.452 628.355,133.823 C626.261,134.195 622.834,134.716 620.74,134.981 C618.646,135.247 615.733,135.931 614.267,136.503 C608.692,138.678 603.23,139.3 588.391,139.451 C573.838,139.598 572.896,139.519 569.492,137.871 C567.522,136.916 565.482,136.132 564.958,136.128 C564.434,136.125 564.006,135.833 564.006,135.481 C564.006,134.565 555.301,130.46 549.918,128.837 C544.2,127.113 542.473,125.588 539.203,119.373 C535.83,112.963 531.771,108.591 527.309,106.56 C523.14,104.663 520.704,101.836 516.688,94.234 C515.085,91.1988 513.382,88.2444 512.904,87.6688 C511.628,86.1312 505.143,86.3471 502.153,88.0268 C500.777,88.7993 497.854,89.8922 495.656,90.4554 C493.459,91.0185 491.661,91.6975 491.661,91.9641 C491.661,93.5856 497.069,97.1409 506.305,101.592 C511.545,104.117 510.438,107.433 504.396,107.311 C502.533,107.274 500.395,107.692 499.646,108.24 C498.388,109.16 498.56,109.493 501.885,112.589 C503.867,114.432 507.632,118.048 510.252,120.622 C514.092,124.394 515.892,125.563 519.521,126.641 C521.999,127.376 525.568,128.697 527.453,129.575 C529.338,130.453 531.222,131.192 531.641,131.217 C533.182,131.308 535.83,132.434 535.83,132.998 C535.83,133.318 534.998,134.024 533.982,134.568 C531.771,135.752 520.28,135.346 517.934,134.001 C517.096,133.521 514.697,132.413 512.603,131.538 C506.83,129.126 500.449,125.911 500.165,125.27 C499.766,124.373 494.095,124.602 493.517,125.538 C493.231,125.999 491.841,126.861 490.426,127.452 C489.011,128.043 487.853,128.988 487.853,129.551 C487.853,130.573 495.538,136.122 496.953,136.122 C497.967,136.122 498.973,138.216 499.582,141.594 C500.064,144.264 500.282,144.44 504.061,145.202 C506.246,145.642 512.66,146.516 518.314,147.144 C533.037,148.78 536.128,149.399 544.968,152.481 C551.621,154.802 555.583,155.921 557.139,155.921 C558.675,155.921 562.322,157.245 565.709,159.031 C566.436,159.415 567.417,159.729 567.888,159.729 C569.446,159.729 576.19,153.522 576.658,151.658 C577.268,149.227 578.092,149.35 579.205,152.038 C579.709,153.254 580.95,155.027 581.963,155.979 C582.977,156.931 583.811,158.421 583.817,159.29 C583.824,160.16 584.081,161.23 584.389,161.669 C585.291,162.955 594.35,164.373 600.94,164.259 C604.291,164.201 608.06,164.57 609.317,165.078 C610.574,165.587 616.742,166.169 623.024,166.372 C632.387,166.674 634.902,167.001 636.966,168.184 C638.497,169.062 640.945,169.629 643.209,169.629 L646.933,169.629 L647.163,165.638 C647.333,162.698 647.716,161.586 648.617,161.415 C649.802,161.19 650.492,162.942 651.941,169.845 C652.208,171.122 653.167,172.321 654.351,172.861 C657.611,174.346 658.536,172.172 658.344,163.478 C658.255,159.467 658.441,155.766 658.757,155.255 C659.811,153.551 661.359,155.835 662.218,160.359 C663.596,167.619 664.487,170.212 665.773,170.705 C667.798,171.482 669.091,169.67 669.187,165.918 C669.394,157.818 671.632,154.575 672.569,161.016 C672.862,163.031 673.574,165.609 674.151,166.746 C675.727,169.851 678.193,168.597 679.767,163.892 C681.135,159.801 682.072,159.071 683.598,160.91 C684.293,161.748 684.562,163.954 684.439,167.806 C684.242,173.995 684.586,175.168 686.491,174.801 C687.31,174.643 688.154,173.038 688.9,170.223 z M782.826,157.635 C783.02,157.321 783.273,155.693 783.39,154.017 C783.748,148.875 785.735,146.428 786.637,150.019 C786.874,150.962 787.512,152.34 788.055,153.083 C788.912,154.255 789.316,154.305 791.128,153.463 C792.275,152.93 793.217,152.184 793.22,151.805 C793.223,151.426 791.855,149.812 790.18,148.219 C788.504,146.625 787.133,144.637 787.133,143.802 C787.133,142.216 784.874,141.452 779.412,141.193 L776.853,141.071 L776.853,146.783 C776.853,151.441 777.18,153.021 778.628,155.35 C780.288,158.02 782.012,158.957 782.826,157.635 z M773.344,153.028 C774.513,150.844 775.216,142.555 774.361,141.028 C773.941,140.277 772.959,139.54 772.179,139.389 C769.176,138.809 757.141,139.271 755.741,140.02 C754.669,140.594 753.613,140.508 751.853,139.702 C746.007,137.026 743.274,137.582 745.509,140.994 C746.336,142.255 747.684,142.893 750.273,143.248 C754.239,143.792 759.841,147.016 763.023,150.587 C765.432,153.292 767.149,153.508 767.997,151.214 C768.577,149.647 768.66,149.69 769.456,151.976 C770.389,154.653 772.211,155.146 773.344,153.028 z M229.696,141.976 C243.473,141.256 249.551,140.647 254.064,139.531 C265.847,136.619 269.118,136.16 280.946,135.758 C288.435,135.505 295.698,134.837 298.461,134.15 C307.033,132.017 307.945,131.758 308.848,131.201 C310.302,130.302 318.061,129.459 318.49,130.153 C318.707,130.504 319.662,130.791 320.614,130.791 C321.565,130.791 324.03,131.646 326.09,132.691 C328.15,133.737 330.367,134.594 331.017,134.595 C331.666,134.597 332.537,134.938 332.952,135.353 C333.658,136.059 338.182,137.247 343.618,138.153 C346.242,138.59 350.719,137.247 358.026,133.831 C360.707,132.578 363.359,131.552 363.921,131.552 C364.483,131.552 365.268,131.24 365.666,130.858 C366.064,130.477 369.302,128.712 372.863,126.936 C381.12,122.818 385.049,120.121 390.117,115.094 C395.15,110.101 395.313,108.549 390.949,107.155 C389.169,106.586 387.027,105.728 386.189,105.249 C385.352,104.77 383.223,103.931 381.459,103.384 C377.161,102.052 375.64,103.118 372.145,109.913 C370.655,112.809 368.865,115.285 368.168,115.413 C367.442,115.547 365.295,114 363.148,111.796 C359.48,108.03 356.703,106.958 354.929,108.624 C354.531,108.998 349.924,109.675 344.692,110.128 C339.46,110.582 335.063,111.304 334.92,111.734 C334.776,112.163 333.873,112.514 332.912,112.514 C331.951,112.514 330.739,113.028 330.217,113.656 C329.696,114.285 328.85,114.799 328.338,114.799 C327.826,114.799 326.787,115.484 326.029,116.322 C324.978,117.483 323.683,117.845 320.58,117.845 C318.341,117.845 316.51,117.525 316.51,117.135 C316.51,116.744 315.842,116.212 315.026,115.953 C314.209,115.694 313.349,114.876 313.114,114.136 C312.879,113.395 311.576,112.279 310.219,111.657 C307.136,110.242 303.09,111.089 296.004,114.634 C293.312,115.981 290.505,117.083 289.766,117.083 C289.027,117.083 288.211,117.426 287.952,117.845 C287.694,118.264 286.217,118.615 284.671,118.625 C281.971,118.642 280.135,119.017 273.483,120.911 C271.808,121.388 269.409,121.944 268.153,122.148 C266.896,122.351 265.183,122.811 264.345,123.17 C263.507,123.529 259.077,124.406 254.499,125.12 C245.11,126.584 234.811,126.19 232.707,124.286 C232.032,123.675 231.073,123.176 230.577,123.176 C229.062,123.176 226.45,121.403 224.015,118.723 C222.741,117.321 220.018,115.317 217.964,114.271 C214.795,112.657 213.611,112.445 210.17,112.875 C207.938,113.154 205.915,113.701 205.674,114.091 C205.434,114.48 204.466,114.799 203.523,114.799 C202.581,114.799 201.145,115.302 200.332,115.917 C199.519,116.532 198.307,117.046 197.639,117.059 C195.923,117.093 194.003,119.442 193.456,122.177 C193.082,124.047 192.406,124.698 190.02,125.485 C188.387,126.024 187.05,126.904 187.05,127.439 C187.05,127.974 188.091,129.547 189.363,130.934 C190.634,132.321 191.856,134.142 192.078,134.979 C192.299,135.817 193.844,137.138 195.511,137.914 C197.178,138.691 199.096,140.172 199.774,141.207 C201.001,143.08 201.053,143.087 210.972,142.761 C216.453,142.58 224.879,142.227 229.696,141.976 z M599.036,129.649 C602.815,126.875 604.367,126.358 604.367,127.875 C604.367,129.525 606.871,131.553 608.864,131.516 C611.87,131.462 619.978,126.731 619.978,125.032 C619.978,123.754 619.235,123.215 614.17,120.82 C613.489,120.497 611.604,120.01 609.982,119.737 C604.166,118.757 601.662,117.597 599.099,114.697 C596.537,111.798 596.413,111.753 591.103,111.764 C588.137,111.77 584.266,112.278 582.501,112.893 C579.112,114.073 576.952,113.772 576.952,112.119 C576.952,111.151 584.377,105.679 587.044,104.683 C587.778,104.408 589.834,104.446 591.613,104.765 C595.679,105.496 597.34,105.157 597.712,103.519 C598.189,101.416 595.447,96.7629 592.38,94.472 C590.805,93.296 589.064,91.9053 588.511,91.3818 C585.689,88.7122 576.942,91.2889 572.394,96.1293 C570.392,98.2609 567.052,98.7338 567.052,96.8859 C567.052,96.2483 568.937,93.9011 571.241,91.6699 C577.856,85.2623 576.917,83.3105 568.062,85.0666 C566.041,85.4675 561.482,86.3697 557.932,87.0715 C554.382,87.7732 550.955,88.6158 550.317,88.9439 C549.105,89.5665 545.819,90.987 540.97,92.9838 C539.399,93.6306 538.114,94.4073 538.114,94.7098 C538.114,95.7684 540.646,98.0454 541.849,98.0694 C544.16,98.1154 545.913,100.26 546.586,103.862 C547.186,107.076 549.704,111.078 550.971,110.833 C551.917,110.649 556.054,112.022 557.632,113.043 C558.525,113.621 560.057,115.605 561.037,117.453 C562.84,120.852 565.313,122.337 571.241,123.581 C574.651,124.297 577.714,125.565 577.714,126.26 C577.714,126.598 578.868,128.099 580.278,129.594 C582.817,132.286 582.909,132.314 589.124,132.314 C595.103,132.314 595.58,132.186 599.036,129.649 z M704.631,124.35 C708.243,121.042 707.382,119.032 702.049,118.325 C699.469,117.983 697.998,117.314 697.051,116.054 C695.77,114.347 694.343,113.765 686.612,111.794 C684.727,111.314 681.814,110.566 680.139,110.132 C678.464,109.699 675.168,109.555 672.817,109.813 C667.59,110.386 661.873,109.224 658.816,106.967 C656.633,105.355 655.795,105.275 640.01,105.185 C625.856,105.104 623.31,104.913 622.25,103.852 C621.569,103.171 620.219,102.614 619.249,102.614 C618.28,102.614 616.506,102.102 615.306,101.477 C612.848,100.195 607.413,99.9279 607.413,101.089 C607.413,102.112 612.457,107.637 615.128,109.539 C616.311,110.381 620.545,111.899 624.537,112.911 C632.231,114.863 634.828,115.92 634.828,117.101 C634.828,118.103 640.587,121.65 642.238,121.664 C642.979,121.67 644.956,122.169 646.632,122.773 C648.307,123.376 651.563,123.892 653.866,123.919 C656.17,123.945 660.796,124.462 664.147,125.068 C667.498,125.673 672.809,126.2 675.95,126.239 C679.092,126.278 682.985,126.547 684.602,126.837 C686.219,127.127 690.777,127.245 694.731,127.099 C701.623,126.844 702.034,126.731 704.631,124.35 z M607.032,288.427 C607.291,288.008 607.846,287.665 608.265,287.665 C608.683,287.665 608.814,288.008 608.555,288.427 C608.297,288.846 607.742,289.189 607.323,289.189 C606.904,289.189 606.773,288.846 607.032,288.427 z " />
	</g>
</svg>
